<svg width="100px" height="48px" viewBox="0 0 135 48" version="1.1" xmlns:xlink="http://www.w3.org/1999/xlink" xmlns="http://www.w3.org/2000/svg">
  <g id="Airnexo" fill="#0f172a">
    <path d="M23.5938 41.1406L17.5938 43.25L13.8438 33.1719L4.64063 33.1719L3.20313 37L-2.76563 34.8594L5.98438 11.1875L12.5469 11.1875L20.3125 32.2437L20.3125 13.75L26.125 13.75L26.125 36.8125L21.9975 36.8125L23.5938 41.1406ZM116.344 39.375L111.594 42.6563L102.719 30.25L97.1094 37.9375L92.3906 34.7188L99.1563 25.3281L92.3906 15.8125L97.1094 12.5313L102.719 20.375L107.984 12.9531L112.719 16.2188L106.234 25.3281L116.344 39.375ZM45.4219 42.6563L49.5156 38.6094L41.8594 31.1406Q45 30.6094 47.0938 28.1563Q49.1875 25.7031 49.1875 22.5156Q49.1875 18.875 46.5313 16.3125Q43.875 13.75 40.2344 13.75L28.3906 13.75L28.3906 36.9219L34.2031 36.9219L34.2031 31.7188L45.4219 42.6563ZM71.5 36.8125L65.8594 36.8125L56.5156 24.2344L56.5156 36.8125L50.7031 36.8125L50.7031 13.75L56.3594 13.75L65.7031 26.3281L65.7031 13.75L71.5 13.75L71.5 36.8125ZM73.7656 36.8125L91.6875 36.8125L91.6875 31.1563L79.5781 31.1563L79.5781 28.1094L88.8125 28.1094L88.8125 22.4531L79.5781 22.4531L79.5781 19.4063L91.6875 19.4063L91.6875 13.75L73.7656 13.75L73.7656 36.8125ZM132.156 33.4844Q135.656 30.125 135.656 25.2813Q135.656 20.4688 132.141 17.1094Q128.641 13.75 123.813 13.75Q118.938 13.75 115.453 17.0938Q111.984 20.4531 111.984 25.2813Q111.984 30.1719 115.453 33.5156C117.745 35.7135 120.531 36.8125 123.813 36.8125Q128.656 36.8125 132.156 33.4844ZM128.063 21.1094Q129.844 22.8281 129.844 25.2813Q129.844 27.75 128.063 29.4531Q126.313 31.1563 123.813 31.1563Q121.328 31.1563 119.563 29.4531Q117.781 27.75 117.781 25.2813Q117.781 22.8281 119.547 21.1094Q121.313 19.4063 123.813 19.4063Q126.313 19.4063 128.063 21.1094ZM42.4375 20.3438Q43.3906 21.25 43.3906 22.5156Q43.3906 23.7969 42.4531 24.7031Q41.5313 25.6094 40.2344 25.6094L34.2031 25.6094L34.2031 19.4375L40.2344 19.4375Q41.5156 19.4375 42.4375 20.3438ZM11.7813 27.5313L9.26563 20.6875L6.71875 27.5313L11.7813 27.5313Z" />
  </g>
</svg>